<svg width="15" height="17" viewBox="0 0 15 17"  xmlns="http://www.w3.org/2000/svg">
<path d="M7.36875 16.375C7.06875 16.375 6.78125 16.3187 6.50625 16.2062C6.23125 16.0938 5.9875 15.9312 5.775 15.7188L1.95 11.875L2.5125 11.2938C2.7125 11.0938 2.947 10.9595 3.216 10.891C3.485 10.8225 3.7505 10.8255 4.0125 10.9L5.25 11.2563V5.125C5.25 4.9125 5.322 4.7345 5.466 4.591C5.61 4.4475 5.788 4.3755 6 4.375C6.212 4.3745 6.39025 4.4465 6.53475 4.591C6.67925 4.7355 6.751 4.9135 6.75 5.125V13.2438L4.93125 12.7375L6.84375 14.65C6.90625 14.7125 6.9845 14.7657 7.0785 14.8097C7.1725 14.8538 7.26925 14.8755 7.36875 14.875H10.5C10.9125 14.875 11.2657 14.7283 11.5597 14.4347C11.8537 14.1412 12.0005 13.788 12 13.375V10.375C12 10.1625 12.072 9.9845 12.216 9.841C12.36 9.6975 12.538 9.6255 12.75 9.625C12.962 9.6245 13.1402 9.6965 13.2847 9.841C13.4292 9.9855 13.501 10.1635 13.5 10.375V13.375C13.5 14.2 13.2062 14.9063 12.6187 15.4938C12.0312 16.0813 11.325 16.375 10.5 16.375H7.36875ZM7.5 11.125V8.125C7.5 7.9125 7.572 7.7345 7.716 7.591C7.86 7.4475 8.038 7.3755 8.25 7.375C8.462 7.3745 8.64025 7.4465 8.78475 7.591C8.92925 7.7355 9.001 7.9135 9 8.125V11.125H7.5ZM9.75 11.125V8.875C9.75 8.6625 9.822 8.4845 9.966 8.341C10.11 8.1975 10.288 8.1255 10.5 8.125C10.712 8.1245 10.8902 8.1965 11.0347 8.341C11.1792 8.4855 11.251 8.6635 11.25 8.875V11.125H9.75ZM15 5.125H11.25V4H13.425C12.6 3.275 11.6812 2.71875 10.6687 2.33125C9.65625 1.94375 8.6 1.75 7.5 1.75C6.4 1.75 5.34375 1.94375 4.33125 2.33125C3.31875 2.71875 2.4 3.275 1.575 4H3.75V5.125H0V1.375H1.125V2.89375C2.025 2.15625 3.01875 1.59375 4.10625 1.20625C5.19375 0.81875 6.325 0.625 7.5 0.625C8.675 0.625 9.80625 0.81875 10.8937 1.20625C11.9812 1.59375 12.975 2.15625 13.875 2.89375V1.375H15V5.125Z" fill="currentColor"/>
</svg>
