<svg width="14" height="15" viewBox="0 0 14 15" xmlns="http://www.w3.org/2000/svg">
<path d="M1.55556 14.5C1.12778 14.5 0.761704 14.3478 0.457333 14.0434C0.152963 13.7391 0.000518519 13.3727 0 12.9444V2.05556C0 1.62778 0.152444 1.2617 0.457333 0.957333C0.762222 0.652963 1.1283 0.500519 1.55556 0.5H12.4444C12.8722 0.5 13.2386 0.652444 13.5434 0.957333C13.8483 1.26222 14.0005 1.6283 14 2.05556V12.9444C14 13.3722 13.8478 13.7386 13.5434 14.0434C13.2391 14.3483 12.8727 14.5005 12.4444 14.5H1.55556ZM1.55556 12.9444H12.4444V10.6111H10.1111C9.72222 11.1037 9.25893 11.4861 8.72122 11.7583C8.18352 12.0306 7.60978 12.1667 7 12.1667C6.39022 12.1667 5.81674 12.0306 5.27956 11.7583C4.74237 11.4861 4.27881 11.1037 3.88889 10.6111H1.55556V12.9444ZM7 10.6111C7.41481 10.6111 7.79722 10.504 8.14722 10.2899C8.49722 10.0757 8.78241 9.79393 9.00278 9.44444C9.08055 9.32778 9.17778 9.23367 9.29444 9.16211C9.41111 9.09056 9.54074 9.05504 9.68333 9.05556H12.4444V2.05556H1.55556V9.05556H4.31667C4.45926 9.05556 4.58889 9.09133 4.70556 9.16289C4.82222 9.23444 4.91944 9.3283 4.99722 9.44444C5.21759 9.79444 5.50278 10.0765 5.85278 10.2907C6.20278 10.5048 6.58519 10.6116 7 10.6111Z" fill="currentColor"/>
</svg>
