<svg width="14" height="15" viewBox="0 0 14 15"  xmlns="http://www.w3.org/2000/svg">
<path d="M7 1.77273C5.48104 1.77273 4.02428 2.37613 2.95021 3.45021C1.87614 4.52428 1.27273 5.98103 1.27273 7.5C1.27273 9.02536 1.86773 10.4101 2.8401 11.4365L3.16082 11.7751L2.35455 13.2273H7C7.75212 13.2273 8.49687 13.0791 9.19173 12.7913C9.8866 12.5035 10.518 12.0816 11.0498 11.5498C11.5816 11.018 12.0035 10.3866 12.2913 9.69173C12.5791 8.99687 12.7273 8.25212 12.7273 7.5C12.7273 6.74788 12.5791 6.00313 12.2913 5.30827C12.0035 4.6134 11.5816 3.98203 11.0498 3.45021C10.518 2.91838 9.8866 2.49651 9.19173 2.20869C8.49687 1.92087 7.75212 1.77273 7 1.77273ZM5.69004e-06 7.5C5.69004e-06 3.63409 3.1341 0.5 7 0.5C10.8659 0.5 14 3.63409 14 7.5C14 11.3659 10.8659 14.5 7 14.5H0.190915L1.60364 11.9584C0.565227 10.7049 -0.00207259 9.12772 5.69004e-06 7.5Z" fill="currentColor"/>
</svg>
